<?xml version="1.0" standalone="no"?><!DOCTYPE svg PUBLIC "-//W3C//DTD SVG 1.1//EN" "http://www.w3.org/Graphics/SVG/1.1/DTD/svg11.dtd"><svg t="1550234879307" class="icon" style="" viewBox="0 0 1025 1024" version="1.1" xmlns="http://www.w3.org/2000/svg" p-id="3095" xmlns:xlink="http://www.w3.org/1999/xlink" width="200.1953125" height="200"><defs><style type="text/css"></style></defs><path d="M294.642693 35.199371l-103.861002 103.641578 260.822771 260.383922-51.784218 51.711077L138.997473 190.625167 35.209612 294.266745a9.800968 9.800968 0 0 1-16.603132-6.290173L0.101667 10.404386a9.654685 9.654685 0 0 1 10.239817-10.239818l277.937894 18.431671a9.800968 9.800968 0 0 1 6.363315 16.603132z m330.965519 415.736577l-51.784218-51.711077 260.822771-260.383922L730.785762 35.199371a9.727826 9.727826 0 0 1 6.217032-16.603132l277.937894-18.577954a9.800968 9.800968 0 0 1 10.3861 10.386101l-18.577954 277.572186a9.727826 9.727826 0 0 1-16.603132 6.217032l-103.714719-103.641578-260.822771 260.383922zM399.747102 550.042749l51.784218 51.711077-260.749629 260.383922 103.861002 103.641577a9.727826 9.727826 0 0 1-6.290173 16.603132l-277.937894 18.577954A9.800968 9.800968 0 0 1 0.028526 990.574311l18.651095-277.572186a9.727826 9.727826 0 0 1 16.529991-6.217032L138.997473 810.426671l260.749629-260.383922z m590.325459 156.742344a9.800968 9.800968 0 0 1 16.749415 6.217032l18.504812 277.572186a9.727826 9.727826 0 0 1-10.312958 10.3861l-277.937894-18.504812a9.727826 9.727826 0 0 1-6.290174-16.603132l103.861003-103.714719-260.822771-260.383922 51.784218-51.711077 260.822771 260.383922 103.641578-103.641578z" p-id="3096"></path></svg>