<?xml version="1.0" standalone="no"?><!DOCTYPE svg PUBLIC "-//W3C//DTD SVG 1.1//EN" "http://www.w3.org/Graphics/SVG/1.1/DTD/svg11.dtd"><svg t="1550281554816" class="icon" style="" viewBox="0 0 1024 1024" version="1.1" xmlns="http://www.w3.org/2000/svg" p-id="3285" xmlns:xlink="http://www.w3.org/1999/xlink" width="200" height="200"><defs><style type="text/css"></style></defs><path d="M744.7833312 325.5017632l197.3523776 0c8.95815893 0 16.21681067 7.24882773 16.21681067 16.1895232l0 32.37686187c0 8.9406944-7.25865173 16.18843093-16.21681067 16.18843093L682.70712107 390.2565792 650.28004907 390.2565792c-8.95488427 0-16.21681067-7.24882773-16.21681067-16.18843093l0-32.37686187L634.0632384 82.67420373c0-8.9406944 7.2619264-16.18843093 16.21681067-16.18843093l32.42707306 0c8.95488427 0 16.213536 7.24882773 16.213536 16.18843093L698.92065813 279.71658773 938.5424032 40.4768768c6.3297632-6.32430507 16.5977536-6.32430507 22.93079147 0l22.93079146 22.89367893c6.3297632 6.3210304 6.3297632 16.57155733 0 22.89258774L744.7833312 325.5017632zM374.56479253 957.9650272L342.00018773 957.9650272c-8.9952704 0-16.28448533-7.27939093-16.28448533-16.25828907L325.7157024 744.10112747 85.0711968 984.36250773c-6.36032533 6.34831893-16.6708864 6.34831893-23.02793707 0l-23.03121173-22.993008c-6.35705067-6.34831893-6.35705067-16.64250667 0-22.99082453l240.6434144-240.26247147L81.7365824 698.11620267c-8.99199573 0-16.28448533-7.27939093-16.28448533-16.25828907l0-32.51548587c0-8.97889813 7.2924896-16.25828907 16.28448533-16.25828906l260.26360533 0 32.5646048 0c8.9952704 0 16.28339413 7.27939093 16.28339414 16.25828906l0 32.51548587 0 259.8488256C390.84818667 950.68563627 383.560064 957.9650272 374.56479253 957.9650272zM374.56479253 390.255488L342.00018773 390.255488 81.7365824 390.255488c-8.99199573 0-16.28448533-7.27939093-16.28448533-16.25719787l0-32.51657813c0-8.97889813 7.2924896-16.25719787 16.28448533-16.25719787l197.9210624 0L39.012048 84.96313493c-6.35705067-6.34831893-6.35705067-16.64250667 0-22.99082453l23.03121173-22.993008c6.35705067-6.34831893 16.66761173-6.34831893 23.02793707 0l240.6434144 240.26138027L325.7146112 81.63507093c0-8.97889813 7.28921493-16.25828907 16.28448533-16.25828906l32.5646048 0c8.9952704 0 16.28339413 7.27939093 16.28339414 16.25828906l0 259.84773334 0 32.51657813C390.84818667 382.97718827 383.560064 390.255488 374.56479253 390.255488zM650.28004907 633.08413867l32.42707306 0 259.42858774 0c8.95815893 0 16.21681067 7.24882773 16.21681066 16.1895232l0 32.37795413c0 8.9406944-7.25865173 16.18733973-16.21681066 16.18733973L744.78224 697.83895467l239.62065387 239.23861973c6.3297632 6.32212267 6.3297632 16.57155733 0 22.89367893l-22.93079147 22.89367894c-6.33303787 6.32212267-16.60102827 6.32212267-22.93079147 0L698.92065813 743.62522133l0 197.042384c0 8.9406944-7.25865173 16.18733973-16.213536 16.18733974L650.28004907 956.85494507c-8.95488427 0-16.21681067-7.24664533-16.21681067-16.18733974L634.0632384 681.65052373l0-32.37795413C634.0632384 640.3329664 641.326256 633.08413867 650.28004907 633.08413867z" p-id="3286"></path></svg>